<?xml version="1.0" encoding="UTF-8" standalone="no"?>
<!-- Created with Inkscape (http://www.inkscape.org/) -->

<svg
   width="32"
   height="32"
   viewBox="0 0 32 32"
   version="1.1"
   id="svg1"
   xml:space="preserve"
   inkscape:export-filename="bitmap.svg"
   inkscape:export-xdpi="96"
   inkscape:export-ydpi="96"
   xmlns:inkscape="http://www.inkscape.org/namespaces/inkscape"
   xmlns:sodipodi="http://sodipodi.sourceforge.net/DTD/sodipodi-0.dtd"
   xmlns="http://www.w3.org/2000/svg"
   xmlns:svg="http://www.w3.org/2000/svg"><sodipodi:namedview
     id="namedview1"
     pagecolor="#ffffff"
     bordercolor="#000000"
     borderopacity="0.25"
     inkscape:showpageshadow="2"
     inkscape:pageopacity="0.0"
     inkscape:pagecheckerboard="0"
     inkscape:deskcolor="#d1d1d1"
     inkscape:document-units="px"><inkscape:page
       x="0"
       y="0"
       width="32"
       height="32"
       id="page2"
       margin="0"
       bleed="0" /></sodipodi:namedview><defs
     id="defs1" /><g
     inkscape:groupmode="layer"
     id="layer2"
     inkscape:label="Слой 2"
     transform="rotate(0.68695089,4.0049567,5.1152415)"><ellipse
       style="display:none;fill:#004f44;fill-opacity:1;stroke-width:5.3965"
       id="path31"
       cx="15.879568"
       cy="15.732777"
       rx="15.39135"
       ry="15.66383"
       transform="matrix(0.99999758,-0.00219841,-0.00269189,0.99999638,0,0)" /></g><g
     inkscape:label="Слой 1"
     inkscape:groupmode="layer"
     id="layer1"
     sodipodi:insensitive="true"><g
       id="surface1"
       transform="matrix(1.7859223,0,0,1.7859223,-12.240582,-2.7155732)"><path
         style="fill:#000000;fill-opacity:1;fill-rule:nonzero;stroke:none"
         d="M 14.984375,2.21875 C 13.863281,2.300781 12.679688,2.640625 11.6875,3.171875 10.929688,3.574219 10.578125,3.828125 9.878906,4.46875 8.992188,5.28125 8.226562,6.429688 7.859375,7.507812 7.742188,7.851562 7.5625,8.476562 7.5625,8.546875 c 0,0.00781 0.039062,-0.00391 0.085938,-0.035156 C 7.707031,8.480469 7.777344,8.382812 7.839844,8.253906 7.898438,8.140625 8.027344,7.914062 8.128906,7.757812 8.230469,7.601562 8.335938,7.414062 8.367188,7.351562 8.390625,7.289062 8.480469,7.117188 8.566406,6.976562 8.648438,6.835938 8.71875,6.710938 8.71875,6.703125 c 0,-0.039063 0.523438,-0.835937 0.648438,-0.984375 0.984374,-1.175781 1.972656,-1.929688 3.210937,-2.445312 0.476563,-0.203126 0.828125,-0.308594 1.34375,-0.410157 0.71875,-0.144531 0.898437,-0.160156 1.8125,-0.160156 0.800781,0.00391 0.921875,0.00781 1.398437,0.085937 1.207032,0.195313 2.179688,0.574219 3.117188,1.203126 0.707031,0.480468 1.148438,0.890624 1.789062,1.640624 0.375,0.445313 0.742188,1.058594 1.125,1.867188 0.316407,0.679688 0.359376,0.753906 0.5625,0.949219 l 0.1875,0.191406 -0.01953,-0.1875 C 23.816406,7.835938 23.496094,6.96875 23.101562,6.3125 22.507812,5.324219 21.84375,4.554688 21.078125,3.960938 20.25,3.316406 19.527344,2.929688 18.578125,2.621094 17.523438,2.277344 16.210938,2.132812 14.984375,2.21875 Z m 0,0"
         id="path1" /><path
         style="fill:#000000;fill-opacity:1;fill-rule:nonzero;stroke:none"
         d="M 18.53125,5.753906 C 18.007812,5.769531 17.785156,5.789062 17.65625,5.828125 17.382812,5.914062 16.875,6.207031 16.875,6.28125 c 0,0.011719 0.05859,0.035156 0.132812,0.046875 0.449219,0.074219 1.113282,0.550781 1.34375,0.960937 0.07031,0.132813 0.277344,0.589844 0.332032,0.75 0.01953,0.046876 0.04297,0.085938 0.05859,0.085938 0.01562,0 0.0625,-0.078125 0.09766,-0.175781 0.207031,-0.542969 0.746094,-1.003907 1.3125,-1.125 0.273437,-0.054688 0.8125,-0.054688 1.0625,0.00391 C 21.324219,6.855469 21.535156,6.929688 21.679688,7 21.960938,7.132812 22,7.179688 22,7.410156 V 7.53125 L 21.847656,7.453125 C 21.378906,7.21875 20.582031,7.140625 20.125,7.285156 19.941406,7.34375 19.648438,7.523438 19.523438,7.648438 c -0.15625,0.15625 -0.386719,0.570312 -0.46875,0.828124 l -0.0625,0.21875 0.07422,0.265626 c 0.06641,0.234374 0.07422,0.34375 0.07422,0.789062 0,0.746094 -0.0625,0.898438 -0.578125,1.410156 l -0.273438,0.269532 -0.02344,0.300781 c -0.03516,0.472656 0.0078,0.976562 0.125,1.449219 0.05859,0.230468 0.132813,0.457031 0.175781,0.515624 0.140625,0.203126 0.257813,0.304688 0.414063,0.351563 0.207031,0.0625 0.265625,0.05859 0.480469,-0.02344 0.195312,-0.07031 0.359374,-0.222657 0.765624,-0.710938 C 20.523438,12.960938 20.691406,12.796875 21.5625,12 22.28125,11.339844 22.546875,11.105469 22.855469,10.863281 23.242188,10.550781 23.359375,10.347656 23.410156,9.875 23.46875,9.289062 23.273438,8.523438 22.882812,7.84375 22.566406,7.285156 22.015625,6.585938 21.660156,6.292969 21.429688,6.101562 21.0625,5.902344 20.8125,5.832031 20.644531,5.78125 19.726562,5.714844 19.390625,5.726562 c -0.08594,0 -0.472656,0.015626 -0.859375,0.027344 z m 0,0"
         id="path2" /><path
         style="fill:#000000;fill-opacity:1;fill-rule:nonzero;stroke:none"
         d="M 11.0625,5.78125 C 10.40625,5.824219 10.019531,6.03125 9.449219,6.632812 9.167969,6.933594 8.570312,7.800781 8.367188,8.203125 8.03125,8.863281 7.945312,9.890625 8.1875,10.386719 c 0.117188,0.238281 0.207031,0.335937 0.601562,0.636719 0.386719,0.285156 1.015626,0.875 2.21875,2.070312 0.492188,0.492188 0.949219,0.917969 1.015626,0.949219 0.125,0.07031 0.34375,0.07813 0.519531,0.01953 0.222656,-0.07031 0.464843,-0.441406 0.523437,-0.789062 0.01563,-0.109376 0.05078,-0.28125 0.08203,-0.382813 0.07422,-0.285156 0.128906,-1.183594 0.07812,-1.324219 -0.02344,-0.07422 -0.128906,-0.199218 -0.320312,-0.375 -0.156244,-0.14453 -0.3164,-0.320311 -0.359369,-0.390624 -0.257813,-0.445312 -0.3125,-1.539062 -0.09375,-1.914062 L 12.527344,8.757812 12.386719,8.417969 C 12.214844,7.996094 12.148438,7.867188 11.992188,7.679688 11.539062,7.132812 10.535156,7.039062 9.652344,7.46875 9.550781,7.515625 9.460938,7.542969 9.449219,7.527344 9.414062,7.464844 9.476562,7.304688 9.585938,7.199219 9.75,7.042969 10.042969,6.882812 10.28125,6.832031 c 0.269531,-0.066406 0.835938,-0.066406 1.078125,-0.00391 0.46875,0.121094 0.980469,0.539063 1.195313,0.976563 0.0625,0.132812 0.128906,0.25 0.144531,0.265624 0.01563,0.00781 0.0625,-0.082031 0.105469,-0.203124 0.140624,-0.421876 0.3125,-0.703126 0.582031,-0.976563 0.277343,-0.277344 0.546875,-0.429687 0.980469,-0.558594 l 0.238281,-0.074219 -0.25,-0.171874 C 13.933594,5.78125 13.894531,5.773438 12.5625,5.765625 c -0.628906,-0.00781 -1.304688,0 -1.5,0.015625 z m 0,0"
         id="path3" /><path
         style="fill:#000000;fill-opacity:1;fill-rule:nonzero;stroke:none"
         d="m 15.609375,7.558594 c -0.136719,0.058594 -0.21875,0.1875 -0.21875,0.34375 0,0.277344 0.210937,0.449218 0.445313,0.375 0.425781,-0.132813 0.390624,-0.6875 -0.04297,-0.734375 -0.06641,-0.00391 -0.148438,0 -0.183593,0.015625 z m 0,0"
         id="path4" /><path
         style="fill:#000000;fill-opacity:1;fill-rule:nonzero;stroke:none"
         d="m 12.824219,9.992188 c 0.01172,0.117187 0.05078,0.308593 0.08984,0.429687 0.07031,0.226563 0.167969,0.347656 0.578126,0.710937 0.07812,0.06641 0.148437,0.15625 0.164062,0.199219 0.01953,0.04297 0.03125,0.347657 0.03125,0.671875 0,0.539063 -0.03125,0.847656 -0.113281,1.128906 -0.0078,0.03516 0.101562,0.167969 0.355469,0.425782 0.203124,0.210937 0.386718,0.378906 0.402343,0.378906 0.01953,0 0.02344,-0.05859 0.0039,-0.179688 -0.01172,-0.09766 -0.03516,-0.804687 -0.05078,-1.570312 C 14.257812,10.914062 14.25,10.777344 14.191406,10.585938 14.0625,10.179688 13.71875,9.921875 13.175781,9.828125 12.773438,9.757812 12.804688,9.746094 12.824219,9.992188 Z m 0,0"
         id="path5" /><path
         style="fill:#000000;fill-opacity:1;fill-rule:nonzero;stroke:none"
         d="m 18.285156,9.847656 c -0.730468,0.152344 -0.964844,0.4375 -1.039062,1.257813 -0.01563,0.191406 -0.03906,0.898437 -0.05078,1.574219 l -0.02344,1.222656 0.15625,-0.148438 C 17.625,13.46875 17.820312,13.296875 17.875,13.265625 c 0.05469,-0.03125 0.05469,-0.03906 -0.0078,-0.21875 -0.05859,-0.164063 -0.06641,-0.265625 -0.06641,-0.875 -0.0039,-0.378906 0.0039,-0.738281 0.01953,-0.800781 0.03125,-0.144532 0.171876,-0.324219 0.40625,-0.511719 0.285157,-0.226563 0.402344,-0.460937 0.445313,-0.867187 0.02734,-0.25 0.05469,-0.234376 -0.386719,-0.144532 z m 0,0"
         id="path6" /><path
         style="fill:#000000;fill-opacity:1;fill-rule:nonzero;stroke:none"
         d="m 7.492188,10.492188 c -0.027344,0.03125 -0.039063,0.140624 -0.035157,0.363281 0.00391,0.410156 0.054688,0.757812 0.171875,1.199219 0.320313,1.238281 0.796875,2.160156 1.65625,3.210937 0.34375,0.421875 1.324219,1.300781 1.855469,1.664063 0.277344,0.1875 0.609375,0.08203 0.515625,-0.164063 -0.01563,-0.03906 -0.109375,-0.136719 -0.207031,-0.210937 -0.9375,-0.707032 -1.375,-1.105469 -1.863281,-1.6875 -0.871094,-1.03125 -1.355469,-2.109376 -1.601563,-3.5625 -0.039063,-0.234376 -0.089844,-0.460938 -0.113281,-0.5 C 7.804688,10.683594 7.6875,10.539062 7.609375,10.488281 c -0.066406,-0.04297 -0.074219,-0.04297 -0.117187,0.0039 z m 0,0"
         id="path7" /><path
         style="fill:#000000;fill-opacity:1;fill-rule:nonzero;stroke:none"
         d="m 23.835938,10.503906 c -0.117188,0.06641 -0.203126,0.289063 -0.289063,0.730469 -0.160156,0.867187 -0.214844,1.070313 -0.488281,1.757813 -0.210938,0.535156 -0.496094,1.0625 -0.800782,1.492187 -0.472656,0.660156 -1.339843,1.480469 -2.09375,1.984375 -0.289062,0.195312 -0.351562,0.289062 -0.292968,0.433594 0.09766,0.230468 0.277344,0.183594 0.792968,-0.203125 1.144532,-0.859375 1.925782,-1.730469 2.550782,-2.84375 0.464844,-0.832031 0.820312,-2.09375 0.828125,-2.972657 C 24.046875,10.601562 24.039062,10.523438 24,10.5 23.94141,10.46094 23.90234,10.46094 23.835938,10.5039 Z m 0,0"
         id="path8" /><path
         style="fill:#000000;fill-opacity:1;fill-rule:nonzero;stroke:none"
         d="m 15.355469,10.59375 c -0.332031,0.04687 -0.578125,0.277344 -0.523438,0.488281 0.02734,0.113281 0.128907,0.140625 0.34375,0.08594 0.285157,-0.06641 0.941407,-0.05859 1.148438,0.01563 0.199219,0.07031 0.269531,0.04297 0.324219,-0.117188 0.121093,-0.34375 -0.535157,-0.582031 -1.292969,-0.472656 z m 0,0"
         id="path9" /><path
         style="fill:#000000;fill-opacity:1;fill-rule:nonzero;stroke:none"
         d="m 15.351562,11.71875 c -0.28125,0.03125 -0.460937,0.128906 -0.511718,0.273438 -0.02734,0.08203 -0.02344,0.117187 0.01172,0.175781 0.04688,0.07031 0.07422,0.07422 0.527344,0.08984 0.261719,0.01563 0.632813,0.02344 0.824219,0.02344 0.398437,0 0.4375,-0.01953 0.4375,-0.21875 0,-0.152344 -0.07422,-0.234375 -0.261719,-0.292969 -0.179687,-0.05859 -0.726562,-0.08594 -1.027344,-0.05078 z m 0,0"
         id="path10" /><path
         style="fill:#000000;fill-opacity:1;fill-rule:nonzero;stroke:none"
         d="m 15.230469,12.839844 c -0.308594,0.04297 -0.472657,0.210937 -0.378907,0.402344 0.05078,0.109374 0.128907,0.125 0.554688,0.109374 0.195312,-0.0078 0.53125,0 0.742188,0.01563 0.210937,0.01562 0.40625,0.01562 0.429687,0 0.06641,-0.03906 0.08984,-0.222657 0.03906,-0.324219 -0.07813,-0.167969 -0.1875,-0.203125 -0.71875,-0.214844 -0.261719,-0.0078 -0.5625,0 -0.667969,0.01172 z m 0,0"
         id="path11" /><path
         style="fill:#000000;fill-opacity:1;fill-rule:nonzero;stroke:none"
         d="m 17.953125,13.832031 c -0.148437,0.214844 -0.324219,0.359375 -0.566406,0.46875 -0.09766,0.04687 -0.191407,0.08594 -0.195313,0.09375 -0.0078,0.0039 0.02344,0.05078 0.06641,0.105469 0.128907,0.152344 0.421876,0.691406 0.542969,0.992188 0.164063,0.414062 0.230469,0.722656 0.230469,1.09375 0,0.546874 -0.07031,0.757812 -0.410156,1.203124 -0.25,0.328126 -0.265625,0.382813 -0.101563,0.359376 0.484375,-0.07813 0.917969,-0.636719 1.125,-1.445313 0.08203,-0.335937 0.07813,-1.1875 -0.01172,-1.554687 -0.07031,-0.273438 -0.484374,-1.417969 -0.53125,-1.46875 -0.01562,-0.01563 -0.08203,0.05469 -0.148437,0.152343 z m 0,0"
         id="path12" /><path
         style="fill:#000000;fill-opacity:1;fill-rule:nonzero;stroke:none"
         d="m 13.375,13.761719 c 0,0.04297 -0.03906,0.144531 -0.203125,0.503906 -0.320313,0.722656 -0.445313,1.378906 -0.386719,2.023437 0.05078,0.542969 0.128906,0.773438 0.390625,1.167969 0.222657,0.335938 0.527344,0.625 0.707031,0.660157 0.140626,0.03125 0.210938,0.01953 0.210938,-0.03125 0,-0.01563 -0.08594,-0.140626 -0.191406,-0.28125 -0.101563,-0.140626 -0.238282,-0.359376 -0.300782,-0.488282 l -0.117187,-0.234375 v -0.5 c 0,-0.484375 0.0039,-0.511719 0.101563,-0.816406 0.113281,-0.34375 0.375,-0.859375 0.585937,-1.164063 l 0.132813,-0.1875 -0.191407,-0.117187 c -0.109375,-0.0625 -0.308593,-0.21875 -0.449219,-0.347656 -0.140624,-0.128907 -0.261718,-0.230469 -0.269531,-0.230469 -0.01172,0 -0.01953,0.01953 -0.01953,0.04297 z m 0,0"
         id="path13" /><path
         style="fill:#000000;fill-opacity:1;fill-rule:nonzero;stroke:none"
         d="m 15.046875,13.980469 c -0.148437,0.06641 -0.21875,0.164062 -0.21875,0.304687 0,0.07031 0.01953,0.136719 0.04297,0.152344 0.132812,0.07813 1.707031,0.07031 1.761718,-0.0078 0.04688,-0.07031 0,-0.28125 -0.07812,-0.359376 -0.04688,-0.04297 -0.140626,-0.08984 -0.214844,-0.105468 -0.226563,-0.04297 -1.183594,-0.03125 -1.292969,0.01563 z m 0,0"
         id="path14" /><path
         style="fill:#000000;fill-opacity:1;fill-rule:nonzero;stroke:none"
         d="m 15.117188,15.054688 c -0.210938,0.01172 -0.21875,0.01562 -0.261719,0.117187 -0.04297,0.101563 -0.02344,0.328125 0.03516,0.382813 0.0078,0.01562 0.324219,0.01562 0.695313,0.01562 0.390624,-0.0078 0.75,0 0.847656,0.02344 0.09375,0.01563 0.175781,0.02344 0.183594,0.01953 0.0078,-0.0078 0.01562,-0.113281 0.01562,-0.234375 0.01172,-0.324218 0.02734,-0.316406 -0.699218,-0.328125 -0.332032,-0.0078 -0.703125,-0.0078 -0.816406,0.0039 z m 0,0"
         id="path15" /><path
         style="fill:#000000;fill-opacity:1;fill-rule:nonzero;stroke:none"
         d="m 14.976562,16.128906 c -0.15625,0.05469 -0.148437,-0.08203 -0.164062,3.304688 -0.01953,3.523437 -0.0078,3.324218 -0.226562,3.648437 -0.203126,0.300781 -0.515626,0.453125 -1.078126,0.527344 -0.179687,0.02344 -0.34375,0.05859 -0.363281,0.07813 -0.08984,0.08594 0.0078,0.738281 0.167969,1.105469 0.07031,0.167969 0.128906,0.191406 0.484375,0.1875 0.683594,-0.01172 1.351563,-0.234375 1.789063,-0.601563 0.667968,-0.5625 0.980468,-1.195312 1.046874,-2.113281 0.01563,-0.25 0.02344,-1.632813 0.01563,-3.226563 l -0.0078,-2.785156 -0.06641,-0.07031 c -0.06641,-0.0625 -0.09766,-0.06641 -0.804688,-0.07031 -0.410156,0 -0.765625,0.0039 -0.792969,0.01563 z m 1.316407,0.6875 c 0.0625,0.113282 0.05859,0.214844 -0.01953,0.320313 -0.03906,0.05469 -0.09766,0.0625 -0.464844,0.07422 -0.394532,0.01562 -0.425782,0.01172 -0.503906,-0.05469 -0.140626,-0.113281 -0.09375,-0.367188 0.08203,-0.4375 0.03516,-0.01563 0.242187,-0.02344 0.457031,-0.02344 l 0.390625,0.0078 z m -0.257813,1.054688 c 0.203125,0.203125 0.04297,0.378906 -0.339844,0.378906 -0.25,0 -0.375,-0.230469 -0.210937,-0.390625 0.0625,-0.06641 0.105469,-0.07813 0.265625,-0.07813 0.171875,0 0.203125,0.0078 0.285156,0.08984 z m -0.164062,1.179687 c 0.03906,0.04687 0.06641,0.113281 0.06641,0.15625 0,0.07813 -0.105469,0.167969 -0.195312,0.167969 C 15.65625,19.375 15.5,19.257812 15.5,19.191406 c 0,-0.101562 0.121094,-0.222656 0.21875,-0.222656 0.05859,0 0.113281,0.02734 0.152344,0.08203 z m 0,0"
         id="path16" /><path
         style="fill:#000000;fill-opacity:1;fill-rule:nonzero;stroke:none"
         d="m 19.464844,17.984375 c -0.285156,0.05469 -0.503906,0.179687 -0.714844,0.386719 -0.242188,0.242187 -0.324219,0.480468 -0.320312,0.941406 0,0.378906 0.05469,0.566406 0.25,0.847656 0.375,0.53125 1.167968,0.707032 1.761718,0.378906 0.476563,-0.257812 0.777344,-0.871093 0.691406,-1.40625 -0.105468,-0.609374 -0.5625,-1.066406 -1.164062,-1.160156 -0.242188,-0.04297 -0.242188,-0.04297 -0.503906,0.01172 z m 0,0"
         id="path17" /><path
         style="fill:#000000;fill-opacity:1;fill-rule:nonzero;stroke:none"
         d="m 10.839844,18.101562 c -0.238282,0.125 -0.292969,0.328126 -0.164063,0.605469 0.140625,0.292969 0.601563,0.265625 0.738281,-0.04297 0.117188,-0.265624 0.0078,-0.53125 -0.246093,-0.597656 C 11.007812,18.019531 11,18.023438 10.839844,18.101562 Z m 0,0"
         id="path18" /><path
         style="fill:#000000;fill-opacity:1;fill-rule:nonzero;stroke:none"
         d="m 19.632812,21.589844 c -0.1875,0.117187 -0.164062,0.402344 0.03516,0.488281 0.152343,0.0625 0.292969,0.01172 0.351562,-0.128906 0.05859,-0.144531 0.05469,-0.214844 -0.02734,-0.304688 -0.09375,-0.113281 -0.234376,-0.132812 -0.359376,-0.05469 z m 0,0"
         id="path19" /><path
         style="fill:#000000;fill-opacity:1;fill-rule:nonzero;stroke:none"
         d="m 19.585938,22.710938 c -0.152344,0.09375 -0.203126,0.34375 -0.101563,0.5 0.02734,0.03906 0.101563,0.09375 0.164063,0.121093 0.09375,0.04297 0.117187,0.03906 0.21875,-0.01172 0.07031,-0.03125 0.140624,-0.101562 0.175781,-0.167968 0.05469,-0.09766 0.05859,-0.128906 0.02734,-0.238282 -0.0625,-0.207031 -0.3125,-0.3125 -0.484374,-0.203124 z m 0,0"
         id="path20" /><path
         style="fill:#000000;fill-opacity:1;fill-rule:nonzero;stroke:none"
         d="m 19.632812,23.988281 c -0.238281,0.09766 -0.246093,0.453125 -0.01172,0.570313 0.113281,0.05859 0.121094,0.05859 0.246094,0.0039 0.101562,-0.04687 0.128906,-0.07813 0.15625,-0.179688 0.06641,-0.265624 -0.15625,-0.496093 -0.390626,-0.394531 z m 0,0"
         id="path21" /><path
         style="fill:#000000;fill-opacity:1;fill-rule:nonzero;stroke:none"
         d="m 15.605469,25.566406 c -0.335938,0.125 -0.242188,0.699219 0.117187,0.699219 0.183594,0 0.292969,-0.121094 0.292969,-0.328125 0,-0.132812 -0.01563,-0.167969 -0.105469,-0.257812 -0.109375,-0.117188 -0.203125,-0.152344 -0.304687,-0.113282 z m 0,0"
         id="path22" /><path
         style="fill:#000000;fill-opacity:1;fill-rule:nonzero;stroke:none"
         d="m 8.6875,27.023438 c -0.171875,0.0625 -0.210938,0.265624 -0.078125,0.398437 0.1875,0.191406 0.550781,0 0.449219,-0.238281 C 9.003906,27.042969 8.828125,26.96875 8.6875,27.023438 Z m 0,0"
         id="path23" /><path
         style="fill:#000000;fill-opacity:1;fill-rule:nonzero;stroke:none"
         d="m 9.84375,27.019531 c -0.289062,0.03516 -0.3125,0.04297 -0.367188,0.152344 -0.039062,0.08594 -0.042968,0.121094 -0.011718,0.199219 0.039062,0.08984 0.054687,0.09375 0.269531,0.113281 0.125,0.01172 0.328125,0.01172 0.449219,0 0.195312,-0.01953 0.230468,-0.03516 0.300781,-0.117187 l 0.07813,-0.08984 -0.08594,-0.125 c -0.0586,-0.08985 -0.09766,-0.121098 -0.164065,-0.121098 -0.04687,0 -0.148438,-0.0078 -0.222656,-0.01172 -0.07422,-0.0078 -0.1875,-0.0078 -0.246094,0 z m 0,0"
         id="path24" /><path
         style="fill:#000000;fill-opacity:1;fill-rule:nonzero;stroke:none"
         d="m 11.351562,27.023438 c -0.164062,0.0078 -0.203124,0.02344 -0.246093,0.08594 -0.06641,0.101563 -0.03125,0.246094 0.07422,0.316406 0.07812,0.05078 0.277343,0.05469 3.273437,0.05078 1.753906,-0.0039 3.320313,-0.01562 3.476563,-0.03125 0.265624,-0.01562 0.296874,-0.02344 0.34375,-0.09375 0.07031,-0.109374 0.01953,-0.261718 -0.101563,-0.296874 -0.08984,-0.03125 -6.414063,-0.0625 -6.820313,-0.03125 z m 0,0"
         id="path25" /><path
         style="fill:#000000;fill-opacity:1;fill-rule:nonzero;stroke:none"
         d="m 19.179688,27.023438 c -0.203126,0.01172 -0.214844,0.01562 -0.265626,0.113281 -0.0625,0.144531 -0.01953,0.273437 0.105469,0.304687 0.113281,0.02734 2.527344,0.05469 2.757813,0.03125 0.136718,-0.01563 0.183594,-0.03516 0.230468,-0.101562 0.05859,-0.07813 0.05859,-0.08594 0.01172,-0.175782 -0.02734,-0.05469 -0.08203,-0.117187 -0.117187,-0.136718 -0.06641,-0.03516 -2.269532,-0.06641 -2.722656,-0.03516 z m 0,0"
         id="path26" /><path
         style="fill:#000000;fill-opacity:1;fill-rule:nonzero;stroke:none"
         d="m 22.5625,27.039062 c -0.167969,0.08594 -0.148438,0.40625 0.03125,0.445313 0.09766,0.02344 0.242188,-0.0078 0.308594,-0.05469 0.125,-0.105469 0.09375,-0.304688 -0.0625,-0.386719 -0.105469,-0.05078 -0.175782,-0.05469 -0.277344,-0.0039 z m 0,0"
         id="path27" /><path
         style="fill:#000000;fill-opacity:1;fill-rule:nonzero;stroke:none"
         d="m 10.839844,27.910156 c -0.164063,0.0625 -0.175782,0.285156 -0.01563,0.363282 0.101562,0.05078 0.285156,0.07031 0.460937,0.04687 0.191406,-0.01953 0.265625,-0.105468 0.234375,-0.269531 -0.02344,-0.105469 -0.02344,-0.105469 -0.230469,-0.128906 -0.117187,-0.0078 -0.246093,-0.02344 -0.289062,-0.03125 -0.04297,-0.0078 -0.117188,0.0039 -0.160156,0.01953 z m 0,0"
         id="path28" /><path
         style="fill:#000000;fill-opacity:1;fill-rule:nonzero;stroke:none"
         d="M 19.976562,27.929688 19.75,27.941406 v 0.148438 c 0,0.08984 0.01953,0.167968 0.03906,0.183594 0.0625,0.05469 0.367188,0.08984 0.539063,0.0625 0.347656,-0.04688 0.359375,-0.375 0.01563,-0.40625 -0.07813,-0.0039 -0.242188,-0.0078 -0.367188,0 z m 0,0"
         id="path29" /><path
         style="fill:#000000;fill-opacity:1;fill-rule:nonzero;stroke:none"
         d="m 12.40625,27.976562 c -0.117188,0.0625 -0.164062,0.171876 -0.109375,0.273438 0.08594,0.164062 0.109375,0.167969 0.761719,0.191406 0.339844,0.01172 1.808594,0.01563 3.269531,0.0039 2.878906,-0.01562 2.828125,-0.01562 2.890625,-0.183593 0.04297,-0.109375 -0.02344,-0.257813 -0.117188,-0.285157 -0.09375,-0.02344 -5.558593,-0.03125 -6.007812,-0.01172 -0.148438,0.01172 -0.34375,0.0039 -0.4375,-0.0078 -0.117188,-0.01172 -0.195312,-0.01172 -0.25,0.01953 z m 0,0"
         id="path30" /></g></g></svg>
