<?xml version="1.0" encoding="UTF-8" standalone="no"?>
<!-- Created with Inkscape (http://www.inkscape.org/) -->

<svg
   width="180"
   height="180"
   viewBox="0 0 180 180"
   version="1.1"
   id="svg1"
   xml:space="preserve"
   inkscape:export-filename="elephant.png"
   inkscape:export-xdpi="96"
   inkscape:export-ydpi="96"
   xmlns:inkscape="http://www.inkscape.org/namespaces/inkscape"
   xmlns:sodipodi="http://sodipodi.sourceforge.net/DTD/sodipodi-0.dtd"
   xmlns="http://www.w3.org/2000/svg"
   xmlns:svg="http://www.w3.org/2000/svg"><sodipodi:namedview
     id="namedview1"
     pagecolor="#ffffff"
     bordercolor="#eff7f5"
     borderopacity="0.25"
     inkscape:showpageshadow="2"
     inkscape:pageopacity="0.0"
     inkscape:pagecheckerboard="0"
     inkscape:deskcolor="#d1d1d1"
     inkscape:document-units="px"><inkscape:page
       x="0"
       y="0"
       width="180"
       height="180"
       id="page2"
       margin="0"
       bleed="0" /></sodipodi:namedview><defs
     id="defs1" /><g
     inkscape:label="Слой 1"
     inkscape:groupmode="layer"
     id="layer1"><g
       transform="matrix(0.01993534,0,0,-0.01993534,-10.356902,195.59761)"
       fill="#eff7f5"
       stroke="none"
       id="g30"><path
         d="m 4795,9530 c -359,-26 -737,-135 -1055,-305 -243,-129 -355,-210 -579,-415 -284,-260 -528,-627 -646,-972 -38,-111 -95,-310 -95,-333 0,-3 13,1 28,11 18,10 41,42 61,83 18,36 60,108 92,158 33,51 67,110 76,130 8,21 37,75 64,121 27,45 49,85 49,87 0,13 168,268 208,315 315,376 631,617 1027,783 153,64 265,98 430,131 230,46 288,51 580,51 256,-1 295,-3 448,-28 386,-62 697,-183 997,-385 226,-153 368,-284 572,-525 121,-142 238,-338 360,-597 102,-217 116,-241 180,-304 l 61,-61 -7,60 c -25,198 -127,475 -254,685 -190,316 -402,563 -647,753 -265,206 -496,329 -800,428 -338,110 -757,157 -1150,129 z"
         id="path1" /><path
         d="m 5930,8399 c -167,-5 -239,-11 -280,-24 -88,-27 -250,-121 -250,-145 0,-4 19,-11 43,-15 143,-24 356,-176 429,-307 23,-43 89,-189 107,-240 6,-16 14,-28 19,-28 5,0 19,25 31,56 66,174 238,321 420,360 87,18 260,18 340,-1 35,-9 102,-33 148,-55 90,-42 103,-58 103,-131 v -39 l -49,25 c -150,75 -405,100 -551,54 -59,-19 -153,-76 -192,-116 -50,-51 -124,-183 -150,-266 l -20,-69 23,-86 c 21,-75 24,-109 24,-252 0,-239 -20,-287 -185,-451 l -87,-86 -8,-97 c -11,-151 3,-312 40,-463 19,-74 43,-147 56,-165 45,-66 83,-98 133,-113 66,-20 85,-19 153,7 63,23 116,72 246,228 94,112 148,165 427,420 230,211 315,286 414,364 124,100 161,165 177,316 19,188 -43,432 -168,650 -102,179 -278,403 -392,496 -74,61 -191,125 -271,148 -54,16 -347,37 -455,34 -27,-1 -151,-5 -275,-9 z"
         id="path2" /><path
         d="m 3540,8390 c -210,-14 -334,-80 -516,-273 -90,-96 -282,-373 -347,-502 -107,-211 -134,-540 -57,-699 37,-76 66,-107 193,-203 123,-92 324,-281 709,-663 158,-157 304,-294 325,-304 41,-22 111,-25 167,-6 71,23 149,141 167,252 5,35 17,90 26,123 24,91 42,379 26,424 -8,24 -42,64 -103,120 -50,46 -101,102 -115,125 -83,142 -100,492 -30,612 l 24,41 -45,109 c -55,135 -77,177 -126,236 -145,175 -467,205 -749,68 -33,-15 -61,-24 -65,-19 -12,20 9,71 44,105 52,50 146,101 222,118 86,21 268,21 345,1 150,-39 314,-173 382,-312 20,-43 42,-81 47,-85 5,-3 20,26 33,65 45,134 100,225 187,312 89,89 175,138 314,179 l 76,23 -80,56 c -135,97 -148,99 -574,102 -201,2 -417,0 -480,-5 z"
         id="path3" /><path
         d="m 4995,7821 c -44,-19 -70,-60 -70,-110 0,-88 68,-144 143,-120 136,43 125,220 -14,235 -21,2 -48,0 -59,-5 z"
         id="path4" /><path
         d="m 4104,7043 c 4,-38 16,-99 28,-138 23,-72 54,-111 186,-228 24,-21 47,-49 52,-63 6,-14 10,-111 10,-215 0,-173 -10,-272 -36,-361 -3,-12 32,-54 113,-137 66,-67 124,-121 129,-121 7,0 8,19 2,58 -4,31 -12,257 -17,502 -9,407 -11,451 -30,512 -41,131 -151,213 -325,243 -128,22 -119,26 -112,-52 z"
         id="path5" /><path
         d="m 5851,7089 c -234,-49 -309,-140 -332,-403 -5,-61 -13,-287 -17,-503 l -7,-392 50,48 c 95,91 157,146 175,156 17,10 17,13 -3,70 -18,53 -21,85 -21,280 -1,121 2,236 7,256 9,46 55,104 130,164 91,73 128,147 142,278 9,79 18,75 -124,46 z"
         id="path6" /><path
         d="m 2398,6883 c -9,-11 -13,-45 -12,-117 2,-131 18,-242 55,-384 103,-396 255,-691 530,-1027 110,-135 424,-416 594,-532 89,-60 195,-27 165,52 -5,13 -35,44 -66,67 -300,227 -440,354 -597,541 -278,330 -433,675 -512,1139 -13,76 -29,148 -36,160 -21,39 -59,86 -84,102 -21,14 -24,14 -37,-1 z"
         id="path7" /><path
         d="m 7628,6879 c -38,-22 -66,-93 -93,-234 -51,-278 -69,-343 -156,-562 -68,-172 -159,-341 -257,-478 -151,-211 -428,-474 -669,-635 -93,-62 -113,-92 -94,-139 31,-73 89,-58 253,65 367,275 617,554 817,910 149,267 262,670 265,952 1,90 -2,115 -14,122 -19,12 -31,12 -52,-1 z"
         id="path8" /><path
         d="m 4914,6850 c -106,-15 -185,-89 -168,-156 9,-37 41,-45 110,-28 91,21 301,19 368,-5 63,-22 86,-13 104,38 38,110 -172,186 -414,151 z"
         id="path9" /><path
         d="m 4913,6490 c -91,-10 -148,-41 -164,-87 -9,-27 -8,-38 4,-57 15,-22 23,-23 168,-29 84,-4 203,-7 264,-7 128,0 140,6 140,70 0,49 -24,75 -84,94 -57,18 -232,27 -328,16 z"
         id="path10" /><path
         d="m 4874,6131 c -99,-13 -151,-67 -122,-129 17,-35 42,-40 178,-35 63,3 170,1 238,-4 67,-5 129,-5 137,0 21,12 29,71 13,103 -26,54 -61,65 -230,69 -84,2 -180,0 -214,-4 z"
         id="path11" /><path
         d="m 5745,5814 c -48,-69 -104,-115 -181,-150 -32,-15 -61,-28 -63,-30 -2,-2 8,-17 22,-34 41,-49 135,-221 173,-317 53,-133 74,-232 74,-350 0,-175 -23,-243 -131,-385 -80,-106 -85,-123 -33,-115 155,25 294,203 360,462 27,108 25,380 -4,497 -22,88 -154,454 -170,470 -5,5 -26,-17 -47,-48 z"
         id="path12" /><path
         d="m 4280,5836 c 0,-13 -13,-46 -65,-161 -103,-231 -143,-441 -124,-647 16,-174 41,-248 125,-374 71,-108 169,-200 226,-212 46,-9 68,-6 68,10 0,5 -27,46 -61,91 -33,45 -77,115 -97,156 l -37,75 v 160 c 0,155 1,164 33,261 36,110 120,275 187,372 l 43,61 -62,37 c -35,20 -99,70 -144,111 -44,41 -83,74 -86,74 -3,0 -6,-6 -6,-14 z"
         id="path13" /><path
         d="m 4815,5766 c -47,-21 -70,-52 -70,-97 0,-23 6,-44 14,-49 42,-25 546,-23 564,3 15,22 -1,89 -26,115 -14,13 -44,28 -68,33 -73,14 -379,10 -414,-5 z"
         id="path14" /><path
         d="m 4837,5423 c -67,-4 -69,-5 -83,-38 -14,-33 -8,-105 11,-123 3,-4 104,-5 223,-4 124,2 240,-1 271,-8 30,-5 56,-8 58,-6 3,2 5,36 6,75 3,104 8,101 -224,105 -107,2 -225,2 -262,-1 z"
         id="path15" /><path
         d="m 4792,5079 c -49,-18 -47,26 -52,-1058 -6,-1127 -2,-1063 -73,-1167 -64,-96 -165,-145 -344,-169 -58,-7 -111,-19 -117,-25 -28,-28 3,-236 54,-354 23,-54 41,-61 155,-60 219,4 432,75 572,193 214,180 314,382 335,676 5,80 8,523 6,1032 l -3,892 -21,22 c -21,20 -31,21 -258,23 -131,0 -245,-2 -254,-5 z m 422,-220 c 20,-37 18,-69 -7,-103 -12,-17 -31,-20 -148,-24 -126,-4 -136,-3 -161,18 -46,36 -31,117 26,140 11,5 77,8 146,7 l 125,-2 z m -83,-338 c 65,-65 14,-121 -109,-121 -79,0 -119,74 -67,125 20,21 34,25 85,25 55,0 65,-3 91,-29 z m -52,-377 c 12,-15 21,-37 21,-50 0,-25 -34,-54 -63,-54 -27,0 -77,38 -77,59 0,32 39,71 70,71 19,0 36,-9 49,-26 z"
         id="path16" /><path
         d="m 6229,4485 c -91,-18 -162,-57 -229,-124 -78,-77 -104,-153 -103,-301 0,-121 18,-181 81,-271 119,-170 373,-226 563,-122 153,83 249,279 221,450 -33,195 -179,342 -372,372 -77,13 -77,13 -161,-4 z"
         id="path17" /><path
         d="m 3469,4447 c -77,-40 -94,-105 -53,-193 45,-94 193,-85 236,14 38,84 3,169 -78,191 -52,15 -54,14 -105,-12 z"
         id="path18" /><path
         d="m 6283,3331 c -60,-37 -53,-129 11,-156 48,-20 93,-4 112,41 19,46 18,69 -8,98 -31,36 -75,42 -115,17 z"
         id="path19" /><path
         d="m 6268,2973 c -49,-31 -65,-110 -33,-160 9,-13 32,-31 52,-39 31,-14 38,-13 71,3 22,11 45,33 56,54 17,32 18,42 8,77 -20,66 -99,100 -154,65 z"
         id="path20" /><path
         d="m 6282,2564 c -76,-31 -78,-145 -3,-183 36,-19 38,-19 78,-1 33,15 42,25 50,58 22,85 -50,158 -125,126 z"
         id="path21" /><path
         d="m 4994,2059 c -108,-40 -78,-224 37,-224 59,0 94,39 94,105 0,42 -5,54 -34,83 -35,37 -65,48 -97,36 z"
         id="path22" /><path
         d="m 2780,1593 c -55,-20 -68,-86 -25,-128 60,-61 176,0 144,76 -18,45 -74,69 -119,52 z"
         id="path23" /><path
         d="m 3150,1594 c -92,-11 -100,-14 -117,-49 -13,-28 -14,-39 -4,-64 12,-28 17,-30 86,-36 40,-4 105,-4 144,0 62,6 74,11 96,37 l 25,29 -27,40 c -19,29 -32,39 -53,39 -15,0 -47,2 -71,4 -24,2 -60,2 -79,0 z"
         id="path24" /><path
         d="m 3632,1593 c -52,-3 -65,-8 -78,-28 -21,-33 -10,-79 24,-101 25,-17 88,-18 1047,-16 561,1 1062,5 1113,9 84,5 95,8 109,30 23,35 7,84 -32,96 -29,9 -2052,19 -2183,10 z"
         id="path25" /><path
         d="m 6137,1593 c -65,-4 -68,-5 -84,-37 -21,-46 -7,-87 33,-97 36,-9 809,-18 883,-10 43,5 58,11 73,32 19,25 19,28 4,57 -9,17 -26,37 -37,43 -22,11 -726,21 -872,12 z"
         id="path26" /><path
         d="m 7220,1587 c -54,-27 -47,-129 10,-142 31,-7 78,2 99,18 40,33 30,97 -20,123 -34,17 -56,18 -89,1 z"
         id="path27" /><path
         d="m 3469,1309 c -53,-20 -57,-92 -5,-117 32,-16 91,-22 147,-15 62,7 85,34 75,87 -7,34 -7,34 -74,41 -37,3 -78,8 -92,10 -14,2 -37,-1 -51,-6 z"
         id="path28" /><path
         d="m 6393,1303 -73,-4 v -48 c 0,-28 6,-53 13,-59 20,-17 117,-28 172,-20 111,16 115,120 5,130 -25,2 -78,3 -117,1 z"
         id="path29" /><path
         d="m 3970,1288 c -38,-20 -52,-56 -35,-88 27,-52 35,-54 244,-61 108,-4 579,-5 1046,-2 921,6 905,5 925,59 14,35 -7,83 -38,91 -29,8 -1778,11 -1922,4 -47,-3 -110,-1 -140,3 -38,4 -63,3 -80,-6 z"
         id="path30" /></g></g></svg>
